# xmcd
#
# Track frame offsets:
#	150
#	19506
#	34770
#	46131
#	64807
#	75384
#	99940
#	121020
#	133425
#	162963
#	182174
#
# Disc length: 2664 seconds
#
# Revision: 0
# Processed by: cddbd v1.5.2PL0 Copyright (c) Steve Scherf et al.
# Submitted via: EasyCDDAExtractor 9.0.0.1
#
DISCID=830a660b
DTITLE=Zorán - Közös Szavakból (2006)
DYEAR=1900
DGENRE=
TTITLE0=Penitencia
TTITLE1=Közös szavakból
TTITLE2=Ki figyel rám?
TTITLE3=Alszol a vállamon
TTITLE4=Harminc
TTITLE5=Maradj a hangszernél
TTITLE6=Hiába vársz
TTITLE7=A máshol élõk városa
TTITLE8=Vihar
TTITLE9=Csak a szerelem
TTITLE10=A sziget
EXTD=
EXTT0=
EXTT1=
EXTT2=
EXTT3=
EXTT4=
EXTT5=
EXTT6=
EXTT7=
EXTT8=
EXTT9=
EXTT10=
PLAYORDER=
